<svg id="email_1_" data-name="email (1)" xmlns="http://www.w3.org/2000/svg" width="30.238" height="21.545" viewBox="0 0 30.238 21.545">
  <path id="Path_8924" data-name="Path 8924" d="M169.135,48.908c0-.035.024-.068.022-.1L159.929,57.7l9.217,8.607c.005-.061-.011-.123-.011-.186Z" transform="translate(-138.918 -46.741)" fill="#150734"/>
  <path id="Path_8925" data-name="Path 8925" d="M29.166,126.9,25.4,130.525a.985.985,0,0,1-1.355.011l-3.757-3.5-9.277,8.942a2.137,2.137,0,0,0,.721.144H37.7a2.136,2.136,0,0,0,1.037-.286Z" transform="translate(-9.564 -114.576)" fill="#150734"/>
  <path id="Path_8926" data-name="Path 8926" d="M20.466,46.968,34.548,33.4a2.134,2.134,0,0,0-1.088-.317H7.492a2.14,2.14,0,0,0-1.362.508Z" transform="translate(-5.325 -33.085)" fill="#150734"/>
  <path id="Path_8927" data-name="Path 8927" d="M0,52.1V68.979a2.143,2.143,0,0,0,.093.559l9.162-8.823Z" transform="translate(0 -49.602)" fill="#150734"/>
</svg>
